# xmcd
#
# Track frame offsets:
#	182
#	21057
#	34500
#	53940
#	73155
#	86155
#	109140
#	124917
#	147620
#	170895
#
# Disc length: 2528 seconds
#
# Revision: 0
# Processed by: cddbd v1.4PL0 Copyright (c) Steve Scherf et al.
# Submitted via: dBpowerAMP V4.0
#
DISCID=9609de0a
DTITLE=Kenny Rogers - Clasics from the Heart
DYEAR=1900
DGENRE=Country
TTITLE0=The Nearness Of You
TTITLE1=Love Is Here To Stay
TTITLE2=Crazy In Love
TTITLE3=Where Or When
TTITLE4=Soldier Of Love
TTITLE5=My Romance
TTITLE6=What Did I Do For Love
TTITLE7=But Beautiful
TTITLE8=I Remember You
TTITLE9=In The Wee Small Hours Of The Morning
EXTD=
EXTT0=
EXTT1=
EXTT2=
EXTT3=
EXTT4=
EXTT5=
EXTT6=
EXTT7=
EXTT8=
EXTT9=
PLAYORDER=
